<svg width="154" height="33" viewBox="0 0 154 33" fill="none" xmlns="http://www.w3.org/2000/svg">
<g clip-path="url(#clip0_1_3)">
<path d="M5.078 32.313V22.953C6.45049 24.1708 8.22726 24.8339 10.062 24.813C11.532 24.813 12.839 24.461 13.984 23.758C15.13 23.055 16.031 22.091 16.688 20.868C17.344 19.643 17.672 18.25 17.672 16.688C17.672 15.125 17.344 13.732 16.687 12.508C16.031 11.284 15.13 10.32 13.984 9.618C12.839 8.914 11.531 8.562 10.063 8.562C9.053 8.562 8.109 8.737 7.234 9.086C6.37905 9.42222 5.59883 9.9238 4.938 10.562L4.828 8.875H0.578003V32.313H5.078ZM9.047 20.906C7.901 20.906 6.953 20.506 6.203 19.703C5.453 18.901 5.078 17.896 5.078 16.688C5.078 15.479 5.453 14.474 6.203 13.672C6.953 12.87 7.901 12.469 9.047 12.469C10.193 12.469 11.141 12.869 11.891 13.672C12.641 14.474 13.016 15.479 13.016 16.687C13.016 17.896 12.641 18.901 11.891 19.703C11.141 20.505 10.193 20.906 9.047 20.906ZM27.891 24.813C29.495 24.813 30.921 24.461 32.171 23.758C33.3991 23.0769 34.4219 22.0789 35.133 20.868C35.857 19.643 36.219 18.25 36.219 16.688C36.219 15.125 35.857 13.732 35.133 12.508C34.4222 11.2972 33.3997 10.2992 32.172 9.618C30.922 8.914 29.495 8.562 27.891 8.562C26.286 8.562 24.857 8.914 23.601 9.617C22.3703 10.2966 21.3451 11.2948 20.633 12.507C19.909 13.732 19.547 15.125 19.547 16.687C19.547 18.25 19.909 19.643 20.633 20.867C21.3454 22.0793 22.3709 23.0776 23.602 23.757C24.857 24.461 26.286 24.813 27.891 24.813ZM27.891 20.906C26.745 20.906 25.797 20.506 25.047 19.703C24.297 18.901 23.922 17.896 23.922 16.688C23.922 15.479 24.297 14.474 25.047 13.672C25.797 12.87 26.745 12.469 27.891 12.469C29.036 12.469 29.984 12.869 30.734 13.672C31.484 14.474 31.859 15.479 31.859 16.687C31.859 17.896 31.484 18.901 30.734 19.703C29.984 20.505 29.036 20.906 27.891 20.906ZM43.688 24.5V16.203C43.688 14.963 43.974 14.031 44.547 13.406C45.12 12.781 45.813 12.469 46.625 12.469C47.427 12.469 48.112 12.771 48.68 13.375C49.247 13.979 49.531 14.885 49.531 16.094V24.5H54.031V16.203C54.031 14.963 54.318 14.031 54.891 13.406C55.464 12.781 56.156 12.469 56.969 12.469C57.771 12.469 58.456 12.771 59.023 13.375C59.591 13.979 59.875 14.885 59.875 16.094V24.5H64.375V16.094C64.375 13.729 63.849 11.883 62.797 10.554C61.745 9.227 60.271 8.562 58.375 8.562C57.177 8.562 56.135 8.828 55.25 9.359C54.365 9.891 53.661 10.651 53.14 11.641C52.14 9.589 50.437 8.562 48.031 8.562C46.146 8.562 44.651 9.219 43.547 10.532L43.437 8.875H39.187V24.5H43.688ZM75.375 24.813C76.979 24.813 78.406 24.461 79.656 23.758C80.8837 23.0768 81.9062 22.0788 82.617 20.868C83.341 19.643 83.703 18.25 83.703 16.688C83.703 15.125 83.341 13.732 82.617 12.508C81.9065 11.2973 80.8843 10.2993 79.657 9.618C78.407 8.914 76.979 8.562 75.375 8.562C73.771 8.562 72.341 8.914 71.085 9.617C69.8543 10.2966 68.8291 11.2948 68.117 12.507C67.393 13.732 67.031 15.125 67.031 16.687C67.031 18.25 67.393 19.643 68.117 20.867C68.8294 22.0793 69.8549 23.0776 71.086 23.757C72.341 24.461 73.771 24.813 75.375 24.813ZM75.375 20.906C74.229 20.906 73.281 20.506 72.531 19.703C71.781 18.901 71.406 17.896 71.406 16.688C71.406 15.479 71.781 14.474 72.531 13.672C73.281 12.87 74.229 12.469 75.375 12.469C76.521 12.469 77.469 12.869 78.219 13.672C78.969 14.474 79.344 15.479 79.344 16.687C79.344 17.896 78.969 18.901 78.219 19.703C77.469 20.505 76.521 20.906 75.375 20.906ZM93.188 24.813C94.208 24.813 95.154 24.638 96.023 24.289C96.8757 23.9513 97.6537 23.4495 98.313 22.812L98.421 24.5H102.671V1.062H98.171V10.422C96.7985 9.20421 95.0217 8.54113 93.187 8.562C91.728 8.562 90.423 8.914 89.272 9.617C88.1238 10.3174 87.1872 11.3162 86.562 12.507C85.905 13.732 85.577 15.125 85.577 16.687C85.577 18.25 85.905 19.643 86.561 20.867C87.1865 22.0579 88.1235 23.0567 89.272 23.757C90.423 24.461 91.728 24.812 93.187 24.812L93.188 24.813ZM94.203 20.906C93.057 20.906 92.109 20.506 91.359 19.703C90.609 18.901 90.234 17.896 90.234 16.688C90.234 15.479 90.609 14.474 91.359 13.672C92.109 12.87 93.057 12.469 94.203 12.469C95.349 12.469 96.297 12.869 97.047 13.672C97.797 14.474 98.172 15.479 98.172 16.687C98.172 17.896 97.797 18.901 97.047 19.703C96.297 20.505 95.349 20.906 94.203 20.906ZM113.984 24.813C115.589 24.813 117.016 24.461 118.266 23.758C119.493 23.0766 120.515 22.0787 121.226 20.868C121.951 19.643 122.313 18.25 122.313 16.688C122.313 15.125 121.951 13.732 121.227 12.508C120.516 11.2972 119.494 10.2992 118.266 9.618C117.016 8.914 115.589 8.562 113.984 8.562C112.38 8.562 110.951 8.914 109.695 9.617C108.464 10.2966 107.439 11.2948 106.727 12.507C106.003 13.732 105.641 15.125 105.641 16.687C105.641 18.25 106.003 19.643 106.727 20.867C107.439 22.0792 108.464 23.0774 109.695 23.757C110.951 24.461 112.38 24.812 113.985 24.812L113.984 24.813ZM113.984 20.906C112.839 20.906 111.891 20.506 111.141 19.703C110.391 18.901 110.016 17.896 110.016 16.688C110.016 15.479 110.391 14.474 111.141 13.672C111.891 12.87 112.839 12.469 113.984 12.469C115.13 12.469 116.078 12.869 116.828 13.672C117.578 14.474 117.953 15.479 117.953 16.687C117.953 17.896 117.578 18.901 116.828 19.703C116.078 20.505 115.13 20.906 113.984 20.906ZM129.781 24.5V17.61C129.781 15.964 130.151 14.695 130.891 13.805C131.631 12.915 132.604 12.469 133.813 12.469C134.418 12.4728 135.019 12.5731 135.593 12.766L136.219 8.875C135.539 8.67224 134.834 8.56685 134.125 8.562C132.135 8.562 130.573 9.412 129.437 11.109L129.219 8.875H125.281V24.5H129.781ZM145.187 24.813C146.792 24.813 148.219 24.461 149.469 23.758C150.696 23.0766 151.718 22.0787 152.429 20.868C153.154 19.643 153.516 18.25 153.516 16.688C153.516 15.125 153.154 13.732 152.43 12.508C151.719 11.2972 150.697 10.2992 149.469 9.618C148.219 8.914 146.792 8.562 145.188 8.562C143.583 8.562 142.154 8.914 140.898 9.617C139.667 10.2966 138.642 11.2948 137.93 12.507C137.206 13.732 136.844 15.125 136.844 16.687C136.844 18.25 137.206 19.643 137.93 20.867C138.642 22.0792 139.667 23.0774 140.898 23.757C142.154 24.461 143.583 24.812 145.188 24.812L145.187 24.813ZM145.187 20.906C144.042 20.906 143.094 20.506 142.344 19.703C141.594 18.901 141.219 17.896 141.219 16.688C141.219 15.479 141.594 14.474 142.344 13.672C143.094 12.87 144.042 12.469 145.188 12.469C146.333 12.469 147.281 12.869 148.031 13.672C148.781 14.474 149.156 15.479 149.156 16.687C149.156 17.896 148.781 18.901 148.031 19.703C147.281 20.505 146.333 20.906 145.187 20.906Z" fill="#D7E0FF"/>
</g>
<defs>
<clipPath id="clip0_1_3">
<rect width="153" height="32" fill="white" transform="translate(0.5 0.5)"/>
</clipPath>
</defs>
</svg>
